<svg width="14" height="14" viewBox="0 0 14 14" fill="none" xmlns="http://www.w3.org/2000/svg">
<path d="M11.9968 1.43252C11.7102 1.13351 11.2455 1.13351 10.9588 1.43252L7.24136 5.31035C7.14582 5.41002 6.9909 5.41002 6.89535 5.31035L3.1779 1.43252C2.89126 1.13351 2.42651 1.13351 2.13987 1.43252L1.36207 2.24388C1.07542 2.54289 1.07542 3.02769 1.36207 3.3267L5.07952 7.20453C5.17507 7.3042 5.17507 7.4658 5.07952 7.56547L1.36207 11.4433C1.07542 11.7423 1.07542 12.2271 1.36207 12.5261L2.13987 13.3375C2.42651 13.6365 2.89126 13.6365 3.1779 13.3375L6.89535 9.45964C6.9909 9.35997 7.14582 9.35997 7.24136 9.45964L10.9588 13.3375C11.2455 13.6365 11.7102 13.6365 11.9968 13.3375L12.7747 12.5261C13.0613 12.2271 13.0613 11.7423 12.7747 11.4433L9.0572 7.56547C8.96165 7.4658 8.96165 7.3042 9.0572 7.20453L12.7747 3.3267C13.0613 3.02769 13.0613 2.54289 12.7747 2.24388L11.9968 1.43252Z" fill="#323751" stroke="#323751" stroke-width="0.5"/>
</svg>
